<svg width="550" height="200" viewBox="0 0 550 200" fill="none" xmlns="http://www.w3.org/2000/svg">
<path d="M0 66.4C0 11.7196 11.7196 0 66.4 0H483.6C538.28 0 550 11.7196 550 66.4V133.6C550 188.28 538.28 200 483.6 200H66.4C11.7196 200 0 188.28 0 133.6V66.4Z" fill="white"/>
<path d="M188.119 93H197.511V76.9116H204.694L213.29 93H223.677L214.064 75.3867C219.213 73.1768 222.064 68.6906 222.064 62.4807C222.064 53.5525 216.163 47.7403 205.865 47.7403H188.119V93ZM197.511 69.3094V55.453H204.119C209.71 55.453 212.384 57.9503 212.384 62.4807C212.384 67.011 209.71 69.3094 204.141 69.3094H197.511ZM243.011 93.663C251.364 93.663 256.978 89.5967 258.326 83.3425H249.53C248.58 85.3536 246.348 86.7238 243.166 86.7238C238.414 86.7238 235.364 83.5635 235.364 78.4144H258.547V75.8287C258.547 64.2486 251.541 58.6133 242.635 58.6133C232.69 58.6133 226.215 65.7072 226.215 76.1823C226.215 86.9448 232.602 93.663 243.011 93.663ZM235.364 72.6243C235.585 68.7348 238.547 65.5304 242.79 65.5304C246.922 65.5304 249.795 68.5138 249.818 72.6243H235.364ZM262.641 83.5193C262.641 90.2155 267.437 93.6409 273.934 93.6409C278.973 93.6409 282.199 91.4309 283.857 88.2928H284.122V93H292.896V70.1271C292.896 61.9503 285.912 58.6133 278.487 58.6133C269.492 58.6133 264.365 63.2541 263.835 69.1547H272.608C273.117 66.8343 275.105 65.3978 278.266 65.3978C281.713 65.3978 283.658 67.0331 283.658 69.9061L283.68 72.6464C282.244 72.6906 277.669 72.8895 275.238 73.0442C268.741 73.4641 262.641 75.9171 262.641 83.5193ZM271.481 83.232C271.481 80.6243 273.536 79.0994 276.763 78.8343C278.332 78.6796 282.332 78.4586 283.702 78.3923L283.724 80.8674C283.724 84.4475 280.763 87.2099 276.564 87.2099C273.603 87.2099 271.481 85.8619 271.481 83.232ZM315.003 93.663C323.976 93.663 329.633 88.3812 330.075 80.6685H321.368C320.793 84.2928 318.362 86.3039 315.114 86.3039C310.628 86.3039 307.733 82.5691 307.733 76.0276C307.733 69.5525 310.672 65.8398 315.114 65.8398C318.605 65.8398 320.815 68.1602 321.368 71.5193H330.075C329.677 63.7182 323.755 58.6133 314.981 58.6133C304.705 58.6133 298.34 65.7514 298.34 76.1602C298.34 86.4807 304.594 93.663 315.003 93.663ZM353.508 59.0552H347.099V50.9226H337.862V59.0552H333.177V66.0166H337.862V83.8508C337.818 90.4586 342.37 93.4641 349.088 93.4641C351.342 93.4641 352.978 93.2873 353.972 93.1326V85.8398C352.867 85.9061 351.254 86.0166 350.348 85.9945C348.447 85.9282 347.099 85.2873 347.099 82.5912V66.0166H353.508V59.0552Z" fill="#383E43"/>
<path d="M188.056 155H207.261C217.471 155 222.841 149.696 222.841 142.536C222.841 135.796 218.023 131.751 212.918 131.508V131.066C217.603 130.028 221.073 126.713 221.073 121.365C221.073 114.558 216.034 109.74 206.09 109.74H188.056V155ZM197.449 147.287V135.133H205.603C210.244 135.133 213.161 137.807 213.161 141.608C213.161 145.033 210.797 147.287 205.382 147.287H197.449ZM197.449 128.702V117.365H204.852C209.161 117.365 211.592 119.597 211.592 122.889C211.592 126.514 208.631 128.702 204.675 128.702H197.449ZM243.628 155.663C253.905 155.663 260.291 148.613 260.291 138.16C260.291 127.641 253.905 120.613 243.628 120.613C233.374 120.613 226.965 127.641 226.965 138.16C226.965 148.613 233.374 155.663 243.628 155.663ZM236.358 138.094C236.358 132.149 238.855 127.685 243.695 127.685C248.424 127.685 250.899 132.149 250.899 138.094C250.899 144.061 248.424 148.481 243.695 148.481C238.855 148.481 236.358 144.061 236.358 138.094ZM265.92 155H275.158V121.055H265.92V155ZM265.5 111.906C265.5 114.514 267.776 116.613 270.561 116.613C273.323 116.613 275.6 114.514 275.6 111.906C275.6 109.32 273.323 107.199 270.561 107.199C267.776 107.199 265.5 109.32 265.5 111.906ZM291.47 109.74H282.233V155H291.47V109.74ZM313.948 155.663C322.302 155.663 327.915 151.597 329.263 145.343H320.468C319.517 147.354 317.285 148.724 314.103 148.724C309.352 148.724 306.302 145.564 306.302 140.414H329.484V137.829C329.484 126.249 322.479 120.613 313.573 120.613C303.628 120.613 297.153 127.707 297.153 138.182C297.153 148.945 303.54 155.663 313.948 155.663ZM306.302 134.624C306.523 130.735 309.484 127.53 313.727 127.53C317.86 127.53 320.733 130.514 320.755 134.624H306.302ZM335.17 155H344.408V135.707C344.408 131.53 347.502 128.613 351.678 128.613C352.982 128.613 354.772 128.856 355.634 129.122V120.856C354.794 120.702 353.601 120.569 352.673 120.569C348.872 120.569 345.734 122.779 344.496 126.956H344.142V121.055H335.17V155ZM359.92 167.729H369.158V149.586H369.467C370.749 152.37 373.578 155.552 379.102 155.552C386.881 155.552 392.892 149.409 392.892 138.072C392.892 126.448 386.616 120.613 379.124 120.613C373.401 120.613 370.705 124.017 369.467 126.757H369.047V121.055H359.92V167.729ZM368.981 138.028C368.981 131.906 371.566 128.017 376.207 128.017C380.959 128.017 383.456 132.083 383.456 138.028C383.456 144.017 380.915 148.171 376.207 148.171C371.611 148.171 368.981 144.127 368.981 138.028ZM407.845 109.74H398.608V155H407.845V109.74ZM413.329 145.519C413.329 152.215 418.124 155.641 424.622 155.641C429.66 155.641 432.887 153.431 434.544 150.293H434.81V155H443.583V132.127C443.583 123.95 436.6 120.613 429.174 120.613C420.18 120.613 415.053 125.254 414.522 131.155H423.296C423.804 128.834 425.793 127.398 428.953 127.398C432.401 127.398 434.345 129.033 434.345 131.906L434.368 134.646C432.931 134.691 428.357 134.89 425.926 135.044C419.428 135.464 413.329 137.917 413.329 145.519ZM422.169 145.232C422.169 142.624 424.224 141.099 427.45 140.834C429.02 140.68 433.02 140.459 434.39 140.392L434.412 142.867C434.412 146.448 431.45 149.21 427.252 149.21C424.29 149.21 422.169 147.862 422.169 145.232ZM468.321 121.055H461.912V112.923H452.674V121.055H447.989V128.017H452.674V145.851C452.63 152.459 457.182 155.464 463.901 155.464C466.155 155.464 467.79 155.287 468.785 155.133V147.84C467.68 147.906 466.066 148.017 465.16 147.994C463.26 147.928 461.912 147.287 461.912 144.591V128.017H468.321V121.055ZM488.948 155.663C497.302 155.663 502.915 151.597 504.263 145.343H495.468C494.517 147.354 492.285 148.724 489.103 148.724C484.352 148.724 481.302 145.564 481.302 140.414H504.484V137.829C504.484 126.249 497.479 120.613 488.573 120.613C478.628 120.613 472.153 127.707 472.153 138.182C472.153 148.945 478.54 155.663 488.948 155.663ZM481.302 134.624C481.523 130.735 484.484 127.53 488.727 127.53C492.86 127.53 495.733 130.514 495.755 134.624H481.302Z" fill="#383E43"/>
<path d="M44.3476 101.885C44.3476 110.74 52.9959 119.007 66.6307 123.667C63.908 137.372 66.1428 148.418 73.6072 152.722C81.2798 157.146 92.7102 154.084 103.559 144.602C114.134 153.701 124.822 157.282 132.28 152.966C139.945 148.529 142.277 136.733 139.479 122.6C153.68 117.906 161.624 110.857 161.624 101.885C161.624 93.2349 152.959 85.7515 139.509 81.1217C142.521 66.4046 139.968 55.6263 132.195 51.1443C124.701 46.8233 113.888 50.5895 103.158 59.9269C91.9942 50.016 81.2886 46.9901 73.5228 51.4852C66.0357 55.8184 63.8992 67.0655 66.6307 81.0244C53.4563 85.6171 44.3476 93.2695 44.3476 101.885Z" fill="white"/>
<path d="M136.66 85.7194C135.579 85.3475 134.46 84.9957 133.307 84.663C133.496 83.8899 133.67 83.1267 133.825 82.3766C136.363 70.0587 134.704 60.1354 129.037 56.8682C123.604 53.7354 114.718 57.0019 105.744 64.8108C104.881 65.5617 104.015 66.3567 103.15 67.1899C102.574 66.6386 101.998 66.1059 101.424 65.5963C92.0191 57.2466 82.5917 53.7278 76.9308 57.0045C71.5026 60.1463 69.8951 69.4752 72.1797 81.1489C72.4003 82.2765 72.6582 83.4279 72.9498 84.5987C71.6155 84.9774 70.3275 85.3811 69.095 85.8106C58.0682 89.6544 51.0261 95.6787 51.0261 101.927C51.0261 108.381 58.5858 114.854 70.0711 118.779C70.9774 119.089 71.9179 119.382 72.8871 119.66C72.5725 120.926 72.2989 122.167 72.0692 123.377C69.8909 134.848 71.592 143.957 77.0057 147.079C82.5976 150.303 91.9824 146.989 101.121 139.002C101.843 138.371 102.568 137.701 103.294 136.999C104.235 137.906 105.175 138.763 106.11 139.568C114.961 147.184 123.704 150.259 129.112 147.128C134.699 143.895 136.514 134.11 134.157 122.206C133.977 121.296 133.768 120.368 133.532 119.422C134.191 119.227 134.839 119.026 135.469 118.817C147.409 114.862 155.178 108.467 155.178 101.927C155.178 95.6561 147.909 89.5912 136.66 85.7194Z" fill="#53C1DE"/>
<path d="M134.07 114.594C133.501 114.783 132.916 114.965 132.321 115.142C131.003 110.97 129.224 106.533 127.047 101.949C129.124 97.4745 130.834 93.0945 132.115 88.9493C133.181 89.2576 134.215 89.5827 135.211 89.9258C144.849 93.2432 150.729 98.1481 150.729 101.927C150.729 105.953 144.379 111.179 134.07 114.594ZM129.792 123.07C130.835 128.334 130.984 133.093 130.293 136.814C129.673 140.157 128.425 142.386 126.883 143.278C123.601 145.178 116.581 142.709 109.011 136.196C108.144 135.449 107.269 134.652 106.393 133.808C109.327 130.599 112.26 126.868 115.123 122.725C120.158 122.278 124.915 121.548 129.229 120.55C129.441 121.407 129.63 122.248 129.792 123.07ZM86.5338 142.95C83.3269 144.082 80.7728 144.115 79.2289 143.225C75.9436 141.33 74.5778 134.017 76.4408 124.207C76.6542 123.083 76.9082 121.929 77.2009 120.75C81.4674 121.693 86.1895 122.372 91.2365 122.781C94.1184 126.835 97.1361 130.562 100.177 133.825C99.5128 134.466 98.851 135.077 98.1929 135.652C94.1519 139.184 90.1025 141.69 86.5338 142.95ZM71.51 114.57C66.4315 112.834 62.2374 110.579 59.3626 108.117C56.7794 105.905 55.4752 103.709 55.4752 101.927C55.4752 98.1355 61.1294 93.2988 70.5595 90.0114C71.7038 89.6125 72.9016 89.2366 74.1446 88.8835C75.4479 93.1223 77.1575 97.5542 79.2207 102.036C77.1308 106.584 75.3969 111.086 74.0808 115.375C73.1947 115.12 72.3361 114.852 71.51 114.57ZM76.5461 80.2946C74.5888 70.2928 75.8887 62.7479 79.1599 60.8546C82.6443 58.8377 90.3492 61.7134 98.47 68.923C98.9891 69.3838 99.5102 69.8661 100.033 70.3651C97.0067 73.614 94.0166 77.3127 91.1603 81.3432C86.262 81.7971 81.5731 82.5263 77.2621 83.5028C76.991 82.4127 76.751 81.3417 76.5461 80.2946ZM121.473 91.3864C120.442 89.6066 119.384 87.8688 118.305 86.1785C121.628 86.5985 124.812 87.1561 127.802 87.8384C126.905 90.7149 125.786 93.7224 124.469 96.8055C123.524 95.0121 122.525 93.2039 121.473 91.3864ZM103.152 73.5445C105.204 75.7675 107.259 78.2495 109.281 80.9424C107.244 80.8462 105.181 80.7962 103.102 80.7962C101.042 80.7962 98.9952 80.8451 96.9708 80.9396C98.9943 78.2717 101.067 75.7931 103.152 73.5445ZM84.7134 91.4172C83.684 93.2021 82.7033 95.0004 81.7733 96.8021C80.4777 93.7298 79.3692 90.7086 78.4638 87.7914C81.4354 87.1265 84.6042 86.5828 87.9062 86.1707C86.8124 87.8766 85.7457 89.6272 84.7134 91.4168V91.4172ZM88.0013 118.001C84.5898 117.621 81.3733 117.105 78.4024 116.459C79.3223 113.489 80.4552 110.404 81.7783 107.265C82.7107 109.065 83.6953 110.865 84.731 112.653H84.7312C85.7863 114.476 86.8793 116.261 88.0013 118.001ZM103.275 130.624C101.166 128.349 99.0625 125.833 97.0082 123.126C99.0025 123.204 101.036 123.244 103.102 123.244C105.225 123.244 107.323 123.196 109.389 123.104C107.361 125.86 105.313 128.38 103.275 130.624ZM124.511 107.105C125.903 110.278 127.077 113.347 128.009 116.266C124.989 116.955 121.728 117.509 118.293 117.922C119.374 116.209 120.442 114.441 121.49 112.623C122.551 110.783 123.559 108.941 124.511 107.105ZM117.636 110.4C116.008 113.223 114.337 115.917 112.64 118.461C109.549 118.681 106.356 118.795 103.102 118.795C99.8608 118.795 96.7081 118.695 93.6722 118.498C91.9069 115.921 90.1991 113.219 88.5814 110.425H88.5817C86.9683 107.638 85.4833 104.828 84.1378 102.034C85.483 99.2335 86.964 96.4205 88.5682 93.6391L88.5678 93.6397C90.1763 90.8509 91.8691 88.1617 93.618 85.6011C96.7155 85.367 99.8918 85.2449 103.102 85.2449H103.102C106.326 85.2449 109.507 85.3679 112.603 85.6041C114.326 88.1459 116.007 90.8265 117.622 93.6156C119.255 96.4361 120.755 99.2304 122.112 101.971C120.759 104.759 119.262 107.581 117.636 110.4ZM126.815 60.7223C130.302 62.7333 131.659 70.8436 129.467 81.4787C129.328 82.1573 129.17 82.8485 128.999 83.549C124.678 82.5521 119.986 81.8103 115.073 81.3495C112.212 77.2747 109.246 73.5702 106.269 70.3631C107.069 69.5933 107.869 68.8593 108.665 68.1666C116.354 61.4759 123.54 58.8344 126.815 60.7223Z" fill="white"/>
<path d="M103.102 92.6284C108.238 92.6284 112.402 96.7916 112.402 101.927C112.402 107.063 108.238 111.226 103.102 111.226C97.9656 111.226 93.8016 107.063 93.8016 101.927C93.8016 96.7916 97.9656 92.6284 103.102 92.6284Z" fill="#53C1DE"/>
</svg>
